<mxfile host="app.diagrams.net" modified="2023-07-21T08:50:15.036Z" agent="Mozilla/5.0 (Windows NT 10.0; Win64; x64) AppleWebKit/537.36 (KHTML, like Gecko) Chrome/115.0.0.0 Safari/537.36" etag="mv-t_7SHBGJ9ZxMp3KeK" version="21.6.5" type="github">
  <diagram name="페이지-1" id="KnWfCy08N_Aq-Pb_uunz">
    <mxGraphModel dx="1434" dy="790" grid="1" gridSize="10" guides="1" tooltips="1" connect="1" arrows="1" fold="1" page="1" pageScale="1" pageWidth="827" pageHeight="1169" math="0" shadow="0">
      <root>
        <mxCell id="0" />
        <mxCell id="1" parent="0" />
        <mxCell id="NJ5VuIGl0C8bafN6y_tM-1" value="고객" style="whiteSpace=wrap;html=1;align=center;fillColor=#dae8fc;strokeColor=#6c8ebf;" vertex="1" parent="1">
          <mxGeometry x="360" y="390" width="90" height="40" as="geometry" />
        </mxCell>
        <mxCell id="NJ5VuIGl0C8bafN6y_tM-3" value="" style="endArrow=none;html=1;rounded=0;entryX=0.5;entryY=0;entryDx=0;entryDy=0;exitX=0.5;exitY=1;exitDx=0;exitDy=0;exitPerimeter=0;" edge="1" parent="1" source="NJ5VuIGl0C8bafN6y_tM-4" target="NJ5VuIGl0C8bafN6y_tM-1">
          <mxGeometry relative="1" as="geometry">
            <mxPoint x="290" y="320" as="sourcePoint" />
            <mxPoint x="560" y="330" as="targetPoint" />
          </mxGeometry>
        </mxCell>
        <mxCell id="NJ5VuIGl0C8bafN6y_tM-4" value="고객명" style="ellipse;whiteSpace=wrap;html=1;align=center;" vertex="1" parent="1">
          <mxGeometry x="300" y="260" width="100" height="40" as="geometry" />
        </mxCell>
        <mxCell id="NJ5VuIGl0C8bafN6y_tM-5" value="전화번호" style="ellipse;whiteSpace=wrap;html=1;align=center;" vertex="1" parent="1">
          <mxGeometry x="400" y="260" width="100" height="40" as="geometry" />
        </mxCell>
        <mxCell id="NJ5VuIGl0C8bafN6y_tM-7" value="이메일" style="ellipse;whiteSpace=wrap;html=1;align=center;" vertex="1" parent="1">
          <mxGeometry x="500" y="270" width="100" height="40" as="geometry" />
        </mxCell>
        <mxCell id="NJ5VuIGl0C8bafN6y_tM-8" value="지역" style="ellipse;whiteSpace=wrap;html=1;align=center;" vertex="1" parent="1">
          <mxGeometry x="580" y="300" width="100" height="40" as="geometry" />
        </mxCell>
        <mxCell id="NJ5VuIGl0C8bafN6y_tM-9" value="고객명" style="ellipse;whiteSpace=wrap;html=1;align=center;" vertex="1" parent="1">
          <mxGeometry x="200" y="270" width="100" height="40" as="geometry" />
        </mxCell>
        <mxCell id="NJ5VuIGl0C8bafN6y_tM-11" value="" style="endArrow=none;html=1;rounded=0;exitX=0.5;exitY=1;exitDx=0;exitDy=0;entryX=0.222;entryY=0;entryDx=0;entryDy=0;entryPerimeter=0;" edge="1" parent="1" source="NJ5VuIGl0C8bafN6y_tM-9" target="NJ5VuIGl0C8bafN6y_tM-1">
          <mxGeometry relative="1" as="geometry">
            <mxPoint x="180" y="400" as="sourcePoint" />
            <mxPoint x="370" y="380" as="targetPoint" />
          </mxGeometry>
        </mxCell>
        <mxCell id="NJ5VuIGl0C8bafN6y_tM-12" value="" style="endArrow=none;html=1;rounded=0;entryX=0.611;entryY=-0.05;entryDx=0;entryDy=0;exitX=0.5;exitY=1;exitDx=0;exitDy=0;entryPerimeter=0;" edge="1" parent="1" source="NJ5VuIGl0C8bafN6y_tM-5" target="NJ5VuIGl0C8bafN6y_tM-1">
          <mxGeometry relative="1" as="geometry">
            <mxPoint x="390" y="470" as="sourcePoint" />
            <mxPoint x="515" y="550" as="targetPoint" />
          </mxGeometry>
        </mxCell>
        <mxCell id="NJ5VuIGl0C8bafN6y_tM-15" value="" style="endArrow=none;html=1;rounded=0;entryX=0.5;entryY=1;entryDx=0;entryDy=0;exitX=1;exitY=0.5;exitDx=0;exitDy=0;" edge="1" parent="1" source="NJ5VuIGl0C8bafN6y_tM-1" target="NJ5VuIGl0C8bafN6y_tM-7">
          <mxGeometry relative="1" as="geometry">
            <mxPoint x="330" y="410" as="sourcePoint" />
            <mxPoint x="490" y="410" as="targetPoint" />
          </mxGeometry>
        </mxCell>
        <mxCell id="NJ5VuIGl0C8bafN6y_tM-16" value="" style="endArrow=none;html=1;rounded=0;entryX=0;entryY=1;entryDx=0;entryDy=0;exitX=1;exitY=0.75;exitDx=0;exitDy=0;" edge="1" parent="1" source="NJ5VuIGl0C8bafN6y_tM-1" target="NJ5VuIGl0C8bafN6y_tM-8">
          <mxGeometry relative="1" as="geometry">
            <mxPoint x="460" y="420" as="sourcePoint" />
            <mxPoint x="560" y="320" as="targetPoint" />
          </mxGeometry>
        </mxCell>
        <mxCell id="NJ5VuIGl0C8bafN6y_tM-17" value="가입일" style="ellipse;whiteSpace=wrap;html=1;align=center;" vertex="1" parent="1">
          <mxGeometry x="610" y="340" width="100" height="40" as="geometry" />
        </mxCell>
        <mxCell id="NJ5VuIGl0C8bafN6y_tM-18" value="" style="endArrow=none;html=1;rounded=0;entryX=0;entryY=0.7;entryDx=0;entryDy=0;exitX=1;exitY=0.75;exitDx=0;exitDy=0;entryPerimeter=0;" edge="1" parent="1" source="NJ5VuIGl0C8bafN6y_tM-1" target="NJ5VuIGl0C8bafN6y_tM-17">
          <mxGeometry relative="1" as="geometry">
            <mxPoint x="460" y="430" as="sourcePoint" />
            <mxPoint x="615" y="374" as="targetPoint" />
          </mxGeometry>
        </mxCell>
        <mxCell id="NJ5VuIGl0C8bafN6y_tM-20" value="" style="endArrow=none;html=1;rounded=0;entryX=0.389;entryY=1.05;entryDx=0;entryDy=0;entryPerimeter=0;exitX=0.69;exitY=0;exitDx=0;exitDy=0;exitPerimeter=0;" edge="1" parent="1" source="NJ5VuIGl0C8bafN6y_tM-21" target="NJ5VuIGl0C8bafN6y_tM-1">
          <mxGeometry relative="1" as="geometry">
            <mxPoint x="295.35533905932743" y="465.85786437626894" as="sourcePoint" />
            <mxPoint x="490" y="410" as="targetPoint" />
          </mxGeometry>
        </mxCell>
        <mxCell id="NJ5VuIGl0C8bafN6y_tM-21" value="고객코드" style="ellipse;whiteSpace=wrap;html=1;align=center;fontStyle=4;" vertex="1" parent="1">
          <mxGeometry x="220" y="460" width="100" height="40" as="geometry" />
        </mxCell>
      </root>
    </mxGraphModel>
  </diagram>
</mxfile>
